<svg width="58" height="51" viewBox="0 0 58 51" fill="none" xmlns="http://www.w3.org/2000/svg">
<path d="M16.4423 2.94119C16.4744 1.30757 17.8078 0 19.4418 0H36.2356C40.9523 0 45.1104 0.910237 48.71 2.73071C52.3509 4.50981 55.1644 7.03365 57.1504 10.3022C59.1777 13.5708 55 17.3772 55 21.7216C55 26.0659 59.1777 29.8723 57.1504 33.1409C55.1644 36.4095 52.3509 38.954 48.71 40.7745C45.1104 42.5536 37 46.5 36.2356 43.4431C35.7068 41.3286 25.9878 45.7553 20.0459 48.6855C17.9932 49.6978 15.5552 48.1849 15.6001 45.8966L16.4423 2.94119ZM35.7391 35.1889C40.0834 35.1889 43.5382 33.9891 46.1034 31.5893C48.71 29.1483 46.1034 25.859 46.1034 21.7216C46.1034 17.5841 48.71 14.3155 46.1034 11.9158C43.5382 9.47474 40.0834 8.25419 35.7391 8.25419H29.554C27.8971 8.25419 26.554 9.59734 26.554 11.2542V32.1889C26.554 33.8458 27.8971 35.1889 29.554 35.1889H35.7391Z" fill="#007BFF"/>
<path d="M4.79619 11H8.00003C9.65688 11 11 12.3431 11 14V37.9773C11 40.2474 8.49618 41.7203 6.23818 41.487C4.63333 41.3211 2.99799 41.6029 2.00003 43C-0.0698208 45.8978 1.28775 22.0617 1.81619 13.7734C1.91641 12.2016 3.22112 11 4.79619 11Z" fill="#007BFF" stroke="#007BFF"/>
<path d="M2 5.5V3.5C2 1.84315 3.34315 0.5 5 0.5H8C9.65685 0.5 11 1.84315 11 3.5V5.5C11 7.15685 9.65685 8.5 8 8.5H5C3.34315 8.5 2 7.15685 2 5.5Z" fill="#007BFF" stroke="#007BFF"/>
</svg>
